<svg width="1440" height="82" viewBox="0 0 1440 82" fill="none" xmlns="http://www.w3.org/2000/svg">
<g clip-path="url(#clip0_54_3770)">
<path d="M-681 81.6452L1835.26 81.645L1835.26 1.06493L-681 1.06515L-681 81.6452Z" fill="#1C9748"/>
<path d="M1416.07 81.645L1500.28 81.645L1500.28 1.06493L1416.07 1.06494L1416.07 81.645Z" fill="#1A7266"/>
<path d="M1441.18 1.77496C1444.88 12.4243 1450.42 22.0087 1462.97 26.6234C1458.17 31.2382 1452.26 33.0131 1448.94 37.2728C1445.62 41.5325 1443.77 46.8572 1441.18 51.4719C1431.21 34.7879 1431.21 34.7879 1418.65 26.9784C1423.83 23.7836 1429.37 21.6537 1432.69 17.039C1436.38 12.4243 1438.23 7.09963 1440.45 1.77496L1441.18 1.77496Z" fill="#E4CD59"/>
<path d="M1339.25 0.71002C1347 0.71002 1354.39 0.710019 1362.15 0.710018C1368.79 0.710018 1375.07 0.710017 1381.72 0.710017C1388.37 0.710016 1389.85 2.12993 1391.69 8.16456C1393.54 14.9092 1392.06 19.8788 1385.78 27.6884C1385.78 30.8832 1390.59 29.8182 1390.95 32.6581C1391.32 35.8529 1386.89 35.4979 1386.52 38.3377C1393.17 41.1775 1393.91 40.8226 1400.19 33.013C1403.51 36.5628 1405.36 40.4676 1406.47 45.0823C1409.05 55.7317 1403.51 64.6061 1392.43 65.6711C1376.92 67.091 1361.78 64.6061 1349.59 53.9568C1345.16 50.052 1344.79 48.6321 1347.74 43.6624C1350.33 39.4027 1353.28 35.8529 1357.35 32.6581C1362.15 28.7533 1362.15 26.6234 1358.45 21.6537C1355.5 17.394 1352.17 13.4892 1347.74 10.2944C1344.42 8.16456 1341.46 4.96976 1338.51 2.48492C1339.25 2.12993 1339.25 1.41998 1339.25 0.71002Z" fill="#E4CD59"/>
<path d="M999.093 50.052C1006.85 50.762 1013.5 48.6321 1020.14 45.0823C1033.44 37.6278 1046.74 37.2728 1060.03 44.7273C1066.68 48.2771 1074.07 50.407 1081.82 50.407C1082.19 49.342 1082.19 48.2771 1082.56 46.8572L1082.56 46.5022C1082.56 44.0174 1082.56 41.8875 1082.56 39.4027C1079.61 43.3074 1077.39 43.3074 1070.37 40.8226C1068.16 40.1126 1065.94 39.0477 1064.1 37.9827C1048.58 29.4633 1032.7 29.1083 1017.19 37.9827C1011.65 41.1776 1005 41.5325 999.093 44.3724C999.093 46.1472 999.093 47.9221 999.093 50.052Z" fill="#E4CD59"/>
<path d="M999.093 36.5628C999.093 34.0779 999.093 31.948 999.462 29.4632C1006.11 29.1082 1012.02 27.3333 1017.93 24.1385C1033.07 15.974 1048.21 15.974 1063.36 24.1385C1069.27 27.3333 1075.18 29.8182 1081.82 29.1082C1082.19 31.2381 1082.56 33.3679 1082.56 35.4978C1079.98 37.9827 1077.02 36.9177 1074.44 36.5627C1069.64 35.8528 1065.2 34.0779 1061.14 31.948C1047.48 24.1385 1033.81 23.7835 1020.14 31.5931C1013.87 35.1428 1006.85 37.6277 999.093 36.5628Z" fill="#E4CD59"/>
<path d="M999.462 56.0867C1005.74 56.0867 1011.65 54.3118 1017.19 51.117C1033.07 42.5975 1048.58 42.5975 1064.46 51.117C1070 53.9568 1075.54 56.0867 1082.19 56.0867C1082.93 58.5716 1082.56 61.4114 1082.19 63.8962C1074.44 63.8962 1067.05 61.7664 1060.4 57.8616C1047.48 50.4071 1034.18 50.4071 1021.25 57.8616C1014.6 61.7664 1007.59 64.2512 999.462 63.5413C999.093 61.0564 999.462 58.5716 999.462 56.0867Z" fill="#E4CD59"/>
<path d="M914.885 81.29L999.093 81.29L999.093 0.709953L914.885 0.709961L914.885 81.29Z" fill="#1A7266"/>
<path d="M1082.19 81.29L1166.4 81.29L1166.4 0.709953L1082.19 0.709961L1082.19 81.29Z" fill="#1A7266"/>
<path d="M1249.87 81.29L1334.08 81.29L1334.08 0.709953L1249.87 0.709961L1249.87 81.29Z" fill="#1A7266"/>
<path d="M1190.04 77.3854C1201.86 82.7101 1216.26 82.0001 1227.71 75.6105C1239.53 69.2209 1248.02 57.5066 1249.13 44.3724C1249.13 43.6625 1249.13 42.9525 1249.87 42.5975C1250.24 42.2426 1248.76 33.3681 1248.76 32.3032C1248.02 28.7534 1245.81 25.2036 1243.96 22.0088C1232.88 1.77503 1206.29 -5.32454 1185.98 6.38975C1174.9 12.7794 1165.66 25.5586 1164.55 38.3378C1164.55 39.4027 1164.55 40.8227 1164.55 41.8876C1165.29 56.7967 1176.74 70.9958 1190.04 77.3854ZM1207.4 5.67979C1227.71 5.67979 1243.96 21.2988 1243.96 40.4677C1243.96 59.9915 1228.08 75.9655 1207.77 75.9655C1187.45 76.3205 1170.46 60.3465 1170.83 40.4677C1170.83 21.2988 1187.08 6.03477 1207.4 5.67979Z" fill="#E4CD59"/>
<path d="M1098.81 51.117C1096.97 54.6667 1095.12 57.8616 1093.64 60.7014C1092.16 63.5412 1091.43 66.736 1094.01 69.5758C1096.6 72.4157 1099.92 71.7057 1102.88 70.2858C1106.2 68.8659 1109.15 67.446 1112.85 65.3161C1112.85 65.3161 1116.17 74.5455 1116.54 75.2555C1117.28 77.0304 1118.02 78.8053 1119.5 80.2252C1120.97 82.0001 1122.45 81.6451 1124.67 81.6451C1125.04 81.6451 1125.4 81.6451 1125.77 81.6451C1127.99 80.9351 1129.84 76.6754 1130.58 74.9005C1132.05 71.7057 1132.79 68.5109 1133.16 65.3161C1137.59 66.736 1140.92 69.9308 1145.35 70.9957C1152 72.4157 1155.69 69.2209 1154.21 62.8312C1153.1 58.9265 1150.52 55.7317 1148.67 51.8269C1147.93 49.697 1180.8 45.0823 1163.08 36.5628C1161.97 35.8529 1149.41 30.5282 1148.67 31.9481C1150.52 28.0434 1152.74 24.8486 1154.21 20.9438C1156.43 14.1992 1152.74 10.2944 1145.35 12.4243C1141.66 13.4893 1137.96 15.6191 1133.9 17.749C1134.27 17.394 1131.31 8.87454 1130.94 8.16458C1129.84 5.32475 1128.36 1.77497 1124.67 2.12995C1122.82 2.12995 1121.34 1.77497 1120.23 2.8399C1118.76 3.90484 1118.02 5.67973 1117.28 7.45462C1115.43 11.0044 1114.69 14.5542 1113.96 18.104C1110.26 16.3291 1106.94 14.5542 1103.61 13.1343C1100.66 12.0693 1097.34 11.3594 1094.38 13.8442C1091.43 16.3291 1092.16 19.5239 1093.64 22.3637C1095.12 25.5585 1096.6 28.3983 1098.81 32.3031C1095.12 33.368 1091.06 34.078 1087.73 35.4979C1086.26 36.2079 1084.41 37.2728 1083.3 38.3377C1081.82 39.7577 1082.19 41.5325 1082.19 43.6624C1082.19 44.0174 1082.19 44.3724 1082.19 44.3724C1082.93 46.1473 1087.73 47.9222 1089.21 48.6321C1092.16 49.697 1095.49 50.407 1098.81 51.117ZM1123.19 30.8832C1129.1 30.8832 1134.27 35.1429 1134.64 40.8226C1135.01 46.5022 1130.21 51.8269 1123.93 52.1819C1117.65 52.1819 1112.48 47.2122 1112.48 41.5325C1112.48 35.8529 1117.28 30.8832 1123.19 30.8832Z" fill="#E4CD59"/>
<path d="M939.63 1.41997C943.324 12.0693 948.864 21.6537 961.421 26.2685C956.62 30.8832 950.71 32.6581 947.386 36.9178C944.062 41.1776 942.216 46.5022 939.63 51.1169C929.658 34.433 929.658 34.433 917.101 26.6234C922.272 23.4286 927.812 21.2988 931.136 16.684C934.829 12.0693 936.676 6.74465 938.892 1.41997L939.63 1.41997Z" fill="#E4CD59"/>
<path d="M838.064 0.71002C845.82 0.71002 853.207 0.710019 860.963 0.710018C867.611 0.710018 873.889 0.710017 880.537 0.710017C887.185 0.710016 888.663 2.12993 890.509 8.16456C892.356 14.9092 890.878 19.8788 884.6 27.6884C884.6 30.8832 889.401 29.8182 889.77 32.6581C890.14 35.8529 885.708 35.4979 885.339 38.3377C891.987 41.1775 892.725 40.8226 899.004 33.013C902.328 36.5628 904.174 40.4676 905.282 45.0823C907.868 55.7317 902.328 64.6061 891.248 65.6711C875.736 67.091 860.593 64.6061 848.405 53.9568C843.973 50.052 843.604 48.6321 846.559 43.6624C849.144 39.4027 852.099 35.8529 856.161 32.6581C860.963 28.7533 860.963 26.6234 857.269 21.6537C854.315 17.394 850.991 13.4892 846.559 10.2944C843.235 8.16456 840.28 4.96976 837.325 2.48492C837.695 2.12993 837.695 1.41998 838.064 0.71002Z" fill="#E4CD59"/>
<path d="M1334.45 40.1127C1331.12 43.3075 1327.8 46.5023 1324.11 49.3421C1317.83 54.6668 1311.18 58.5715 1302.68 59.6365C1319.67 46.1473 1320.41 34.078 1304.53 19.8789C1312.29 20.9438 1317.46 23.4287 1323.74 29.1083C1327.06 32.3031 1330.38 35.4979 1333.71 38.6928C1334.08 39.0477 1334.08 39.7577 1334.45 40.1127Z" fill="#E4CD59"/>
<path d="M1248.76 39.4027C1252.09 36.2079 1255.41 33.0131 1259.1 30.1733C1265.38 24.8486 1272.03 20.9438 1280.52 19.8789C1263.53 33.3681 1262.8 45.4373 1278.68 59.6365C1270.92 58.5715 1265.75 56.0867 1259.47 50.407C1256.15 47.2122 1252.82 44.0174 1249.5 40.8226C1249.13 40.4676 1249.13 40.1127 1248.76 39.4027Z" fill="#E4CD59"/>
<path d="M998.354 54.6667C997.985 55.0216 997.985 55.3766 998.354 55.3766C986.905 59.6363 979.518 67.4459 975.456 79.1602C971.024 68.1558 964.745 59.2814 951.08 55.3766C964.376 50.4069 971.393 42.5974 975.086 29.4632C979.149 36.2078 980.257 41.8874 984.32 46.1472C988.382 50.0519 993.184 52.5368 998.354 54.6667Z" fill="#E4CD59"/>
<path d="M1207.4 71.3508C1189.67 71.3508 1176 58.2166 1175.63 41.1777C1175.63 24.1387 1189.67 10.2946 1207.4 10.2946C1224.75 10.2946 1239.53 24.8487 1239.16 41.5327C1238.79 58.2166 1225.12 71.3508 1207.4 71.3508ZM1207.77 66.3811C1222.17 66.3811 1233.99 55.0218 1234.36 41.1777C1234.36 26.9785 1222.17 15.2643 1207.4 15.2643C1192.99 15.2643 1181.17 26.6236 1181.17 40.8227C1180.8 55.3768 1192.62 66.3811 1207.77 66.3811Z" fill="#E4CD59"/>
<path d="M1207.4 19.8789C1219.58 19.8789 1229.19 29.4633 1229.19 41.1776C1229.19 52.8919 1219.21 62.1213 1207.03 62.1213C1195.21 61.7664 1185.61 52.5369 1185.61 41.1776C1185.24 29.4633 1195.21 19.8789 1207.4 19.8789ZM1190.41 40.4677C1190.04 48.9871 1198.16 56.7967 1207.03 57.1516C1215.89 57.1516 1223.28 50.4071 1223.65 41.8876C1224.02 32.6581 1217 25.5586 1207.4 25.2036C1198.53 24.8486 1190.78 31.9482 1190.41 40.4677Z" fill="#E4CD59"/>
<path d="M1195.58 40.8225C1195.58 34.4329 1200.75 29.8182 1207.77 29.8182C1214.41 29.8182 1219.21 34.7879 1219.21 41.1775C1219.21 47.5671 1213.67 52.5368 1207.4 52.1818C1200.75 52.1818 1195.58 46.8571 1195.58 40.8225ZM1207.4 34.4329C1203.7 34.4329 1200.75 37.2727 1200.75 40.8225C1200.75 44.3723 1203.7 47.2121 1207.4 47.2121C1211.09 47.2121 1214.04 44.3723 1214.04 40.8225C1214.04 37.6277 1210.72 34.4329 1207.4 34.4329Z" fill="#E4CD59"/>
<path d="M497.54 49.697C505.296 50.407 511.943 48.2771 518.591 44.7273C531.887 37.2728 545.183 36.9178 558.479 44.3723C565.497 47.9221 572.514 50.052 580.27 50.052C580.639 48.9871 580.639 47.9221 581.009 46.5022L581.009 46.1472C581.009 43.6624 581.009 41.5325 581.009 39.0477C578.054 42.9524 575.838 42.9524 568.821 40.4676C566.605 39.7576 564.389 38.6927 562.542 37.6278C547.03 29.1083 531.149 28.7533 515.637 37.6278C510.097 40.8226 503.449 41.1776 497.54 44.0174C497.54 45.7923 497.54 47.9221 497.54 49.697Z" fill="#E4CD59"/>
<path d="M497.54 36.2078C497.54 33.7229 497.54 31.5931 497.909 29.1082C504.557 28.7532 510.466 26.9783 516.376 23.7835C531.518 15.619 546.661 15.619 561.803 23.7835C567.713 26.9783 573.622 29.4632 580.27 28.7532C580.639 30.8831 581.009 33.013 581.009 35.1428C578.423 37.6277 575.469 36.5627 572.883 36.2078C568.082 35.4978 563.65 33.7229 559.587 31.593C545.922 23.7835 532.257 23.4285 518.591 31.2381C512.313 34.7879 505.296 37.2727 497.54 36.2078Z" fill="#E4CD59"/>
<path d="M497.909 56.0867C504.188 56.0867 510.097 54.3118 515.637 51.117C531.518 42.5975 547.03 42.5975 562.911 51.117C568.451 53.9568 573.991 56.0867 580.639 56.0867C581.378 58.5716 581.009 61.4114 580.639 63.8962C572.883 63.8962 565.497 61.7664 558.849 57.8616C545.922 50.4071 532.626 50.4071 519.7 57.8616C513.052 61.7664 506.034 64.2512 497.909 63.5413C497.909 60.7014 497.909 58.5716 497.909 56.0867Z" fill="#E4CD59"/>
<path d="M413.332 80.9351L497.54 80.9351L497.54 0.354973L413.332 0.35498L413.332 80.9351Z" fill="#1A7266"/>
<path d="M580.639 80.9351L664.847 80.9351L664.847 0.354973L580.639 0.35498L580.639 80.9351Z" fill="#1A7266"/>
<path d="M748.316 80.9351L832.524 80.9351L832.524 0.354973L748.316 0.35498L748.316 80.9351Z" fill="#1A7266"/>
<path d="M688.854 77.0304C700.672 82.3551 715.076 81.6452 726.526 75.2555C738.344 68.8659 746.839 57.1516 747.947 44.0174C747.947 43.3075 747.947 42.5975 748.686 42.2426C749.055 41.8876 747.578 33.0131 747.578 31.9482C746.839 28.3984 744.623 24.8486 742.776 21.6538C731.696 1.42005 705.104 -5.67952 684.791 6.03477C673.711 12.4244 664.478 25.2036 663.37 37.9828C663.37 39.0478 663.37 40.4677 663.37 41.5326C663.739 56.4417 675.188 70.9958 688.854 77.0304ZM705.843 5.67978C726.156 5.67978 742.407 21.2988 742.407 40.4677C742.407 59.9915 726.526 75.9655 706.212 75.9655C685.899 76.3205 668.91 60.3465 669.279 40.4677C669.279 21.2988 685.53 5.67978 705.843 5.67978Z" fill="#E4CD59"/>
<path d="M597.259 50.762C595.413 54.3118 593.566 57.5066 592.089 60.3464C590.611 63.1862 589.873 66.381 592.458 69.2209C595.043 72.0607 598.367 71.3507 601.322 69.9308C604.646 68.5109 607.601 67.091 611.294 64.9611C611.294 64.9611 614.618 74.1906 614.987 74.9005C615.726 76.6754 616.465 78.4503 617.942 79.8702C619.419 81.6451 620.897 81.2901 623.113 81.2901C623.482 81.2901 623.851 81.2901 624.22 81.2901C626.436 80.5802 628.283 76.3204 629.022 74.5455C630.499 71.3507 631.238 68.1559 631.607 64.9611C636.039 66.381 639.363 69.5758 643.795 70.6408C650.443 72.0607 654.136 68.8659 652.659 62.4763C651.551 58.5715 648.966 55.3767 647.119 51.4719C646.38 49.3421 679.251 44.7273 661.523 36.2079C660.415 35.4979 647.858 30.1732 647.119 31.5931C648.966 27.6884 651.182 24.4936 652.659 20.5888C654.875 13.8442 651.182 9.93946 643.795 12.0693C640.102 13.1343 636.408 15.2641 632.346 17.394C632.715 17.039 629.76 8.51956 629.391 7.8096C628.283 4.96977 626.806 1.41999 623.113 1.77497C621.266 1.77497 619.788 1.41999 618.68 2.48492C617.203 3.54985 616.465 5.32475 615.726 7.09964C613.879 10.6494 613.141 14.1992 612.402 17.749C608.709 15.9741 605.385 14.1992 602.061 12.7793C599.106 11.7144 595.782 11.0044 592.827 13.4893C589.873 15.9741 590.611 19.1689 592.089 22.0087C593.566 25.2035 595.043 28.0434 597.259 31.9481C593.566 33.0131 589.503 33.723 586.179 35.1429C584.702 35.8529 582.855 36.9178 581.747 37.9828C580.27 39.4027 580.639 41.1776 580.639 43.3074C580.639 43.6624 580.639 44.0174 580.639 44.0174C581.378 45.7923 586.179 47.5672 587.657 48.2771C590.611 49.3421 593.935 50.052 597.259 50.762ZM621.635 30.5282C627.545 30.5282 632.715 34.7879 633.084 40.4676C633.454 46.1473 628.652 51.4719 622.374 51.8269C616.095 51.8269 610.924 46.8572 610.924 41.1776C610.924 35.4979 615.726 30.8832 621.635 30.5282Z" fill="#E4CD59"/>
<path d="M438.077 1.065C441.77 11.7143 447.31 21.2988 459.868 25.9135C455.066 30.5282 449.157 32.3031 445.833 36.5628C442.509 40.8226 440.662 46.1472 438.077 50.762C428.105 34.078 428.105 34.078 415.548 26.2685C420.718 23.0737 426.258 20.9438 429.582 16.3291C433.276 11.7143 435.122 6.38967 437.338 1.065L438.077 1.065Z" fill="#E4CD59"/>
<path d="M336.511 0.355032C344.267 0.355031 351.653 0.355031 359.409 0.35503C366.057 0.35503 372.336 0.355029 378.984 0.355028C385.632 0.355028 387.109 1.77494 388.956 7.80957C390.803 14.5542 389.325 19.5239 383.047 27.3334C383.047 30.5282 387.848 29.4633 388.217 32.3031C388.587 35.4979 384.154 35.1429 383.785 37.9827C390.433 40.8226 391.172 40.4676 397.45 32.6581C400.774 36.2078 402.621 40.1126 403.729 44.7273C406.315 55.3767 400.774 64.2511 389.694 65.3161C374.183 66.736 359.04 64.2511 346.852 53.6018C342.42 49.697 342.051 48.2771 345.005 43.3074C347.591 39.0477 350.545 35.4979 354.608 32.3031C359.409 28.3983 359.409 26.2685 355.716 21.2988C352.761 17.039 349.437 13.1343 345.005 9.93945C341.681 7.80958 338.727 4.61477 335.772 2.12992C336.141 1.77494 336.141 1.06499 336.511 0.355032Z" fill="#E4CD59"/>
<path d="M832.893 39.7577C829.569 42.9525 826.245 46.1473 822.552 48.9871C816.273 54.3118 809.625 58.2166 801.131 59.2815C818.12 45.7923 818.859 33.7231 802.977 19.5239C810.733 20.5889 815.904 23.0737 822.183 28.7534C825.507 31.9482 828.831 35.143 832.155 38.3378C832.524 39.0477 832.524 39.4027 832.893 39.7577Z" fill="#E4CD59"/>
<path d="M747.208 39.4027C750.532 36.2079 753.856 33.0131 757.55 30.1733C763.828 24.8486 770.476 20.9438 778.971 19.8789C761.981 33.3681 761.243 45.4373 777.124 59.6365C769.368 58.5715 764.198 56.0867 757.919 50.407C754.595 47.2122 751.271 44.0174 747.947 40.8226C747.578 40.1127 747.578 39.7577 747.208 39.4027Z" fill="#E4CD59"/>
<path d="M496.801 54.3117C496.432 54.6666 496.432 55.0216 496.801 55.0216C485.352 59.2814 477.965 67.0909 473.902 78.8052C469.47 67.8008 463.192 58.9264 449.526 55.0216C462.822 50.0519 469.84 42.2424 473.533 29.1082C477.596 35.8528 478.704 41.5324 482.766 45.7922C486.829 49.697 491.63 52.5368 496.801 54.3117Z" fill="#E4CD59"/>
<path d="M705.843 70.9959C688.115 70.9959 674.45 57.8617 674.08 40.8227C674.08 23.7837 688.115 9.93958 705.843 9.93958C723.202 9.93958 737.975 24.4937 737.606 41.1777C737.236 57.8617 723.571 70.9959 705.843 70.9959ZM706.212 66.3811C720.616 66.3811 732.435 55.0218 732.804 41.1777C732.804 26.9785 720.616 15.2642 705.843 15.2643C691.439 15.2643 679.62 26.6236 679.62 40.8227C679.251 55.0218 691.07 66.3811 706.212 66.3811Z" fill="#E4CD59"/>
<path d="M705.843 19.8789C718.031 19.8789 727.634 29.4633 727.634 41.1776C727.634 52.8919 717.662 62.1213 705.474 62.1213C693.655 61.7664 684.052 52.5369 684.052 41.1776C683.683 29.4633 693.655 19.8789 705.843 19.8789ZM688.854 40.4677C688.484 48.9871 696.61 56.7967 705.474 57.1516C714.338 57.1516 721.724 50.4071 722.094 41.8876C722.463 32.6581 715.446 25.5586 705.843 25.2036C696.979 24.4936 689.223 31.5932 688.854 40.4677Z" fill="#E4CD59"/>
<path d="M694.024 40.4675C694.024 34.0779 699.195 29.4632 706.212 29.4632C712.86 29.4632 717.662 34.4329 717.662 40.8225C717.662 47.2121 712.122 52.1818 705.843 51.8268C699.195 51.8268 694.024 46.8571 694.024 40.4675ZM705.843 34.0779C702.15 34.0779 699.195 36.9177 699.195 40.4675C699.195 44.0173 702.15 46.8571 705.843 46.8571C709.536 46.8571 712.491 44.0173 712.491 40.4675C712.86 37.6277 709.536 34.0779 705.843 34.0779Z" fill="#E4CD59"/>
<path d="M-4.01376 49.3421C3.74222 50.052 10.3903 47.9221 17.0382 44.3724C30.3342 36.9178 43.6301 36.5628 56.9261 44.0174C63.5741 47.5672 70.9608 49.697 78.7168 49.697C79.0861 48.6321 79.0861 47.5672 79.4554 46.1472L79.4554 45.7923C79.4554 43.3074 79.4554 41.1775 79.4554 38.6927C76.5007 42.5975 74.2848 42.5975 67.2675 40.1126C65.0515 39.4027 62.8354 38.3377 60.9888 37.2728C45.4768 28.7533 29.5956 28.3983 14.0836 37.2728C8.54363 40.4676 1.89556 40.8226 -4.01376 43.6624C-4.01376 45.7923 -4.01376 47.5672 -4.01376 49.3421Z" fill="#E4CD59"/>
<path d="M-4.01376 35.8528C-4.01376 33.3679 -4.01373 31.2381 -3.6444 28.7532C3.00358 28.3982 8.91289 26.6234 14.8222 23.4286C29.9648 15.264 45.1075 15.264 60.2502 23.4285C66.1595 26.6234 72.0688 29.1082 78.7168 28.3982C79.0861 30.5281 79.4554 32.658 79.4554 34.7879C76.8701 37.2727 73.9155 36.2078 71.3301 35.8528C66.5288 35.1428 62.0968 33.3679 58.0341 31.2381C44.3688 23.4285 30.7035 23.0736 17.0382 30.8831C10.7596 34.7879 3.74222 36.9177 -4.01376 35.8528Z" fill="#E4CD59"/>
<path d="M-3.64439 55.7317C2.63426 55.7317 8.54365 53.9568 14.0836 50.762C29.9649 42.2426 45.4768 42.2426 61.3581 50.762C66.8981 53.6019 72.4381 55.7317 79.086 55.7317C79.8247 58.2166 79.4554 61.0564 79.086 63.5413C71.3301 63.5413 63.9434 61.4114 57.2955 57.5066C44.3688 50.0521 31.0728 50.0521 18.1462 57.5066C11.4982 61.4114 4.48093 63.8962 -3.64439 63.1863C-3.64439 60.7014 -3.64439 58.2166 -3.64439 55.7317Z" fill="#E4CD59"/>
<path d="M79.086 80.9351L163.294 80.9351L163.294 0.354973L79.086 0.35498L79.086 80.9351Z" fill="#1A7266"/>
<path d="M247.132 80.9351L331.34 80.9351L331.34 0.354973L247.132 0.35498L247.132 80.9351Z" fill="#1A7266"/>
<path d="M187.301 77.0304C199.119 82.3551 213.523 81.6452 224.972 75.2555C236.791 68.8659 245.286 57.1516 246.394 44.0174C246.394 43.3075 246.394 42.5975 247.132 42.2426C247.502 41.8876 246.024 33.0131 246.024 31.9482C245.286 28.3984 243.07 24.8486 241.223 21.6538C230.143 1.42005 203.551 -5.67952 183.238 6.03477C172.158 12.4244 162.925 25.2036 161.817 37.9828C161.817 39.0478 161.817 40.4677 161.817 41.5326C162.186 56.4417 173.635 70.6408 187.301 77.0304ZM204.29 5.32481C224.603 5.32481 240.854 20.9439 240.854 40.1127C240.854 59.6365 224.972 75.6105 204.659 75.6105C184.346 75.9655 167.357 59.9915 167.726 40.1127C167.726 20.9439 183.977 5.32481 204.29 5.32481Z" fill="#E4CD59"/>
<path d="M95.706 50.762C93.8593 54.3118 92.0127 57.5066 90.5353 60.3464C89.058 63.1862 88.3194 66.381 90.9047 69.2209C93.49 72.0607 96.814 71.3507 99.7686 69.9308C103.093 68.5109 106.047 67.091 109.741 64.9611C109.741 64.9611 113.065 74.1906 113.434 74.9005C114.173 76.6754 114.911 78.4503 116.389 79.8702C117.866 81.6451 119.343 81.2901 121.559 81.2901C121.929 81.2901 122.298 81.2901 122.667 81.2901C124.883 80.5802 126.73 76.3204 127.469 74.5455C128.946 71.3507 129.685 68.1559 130.054 64.9611C134.486 66.381 137.81 69.5758 142.242 70.6408C148.89 72.0607 152.583 68.8659 151.106 62.4763C149.998 58.5715 147.412 55.3767 145.566 51.4719C144.827 49.3421 177.698 44.7273 159.97 36.2079C158.862 35.4979 146.304 30.1732 145.566 31.5931C147.412 27.6884 149.628 24.4936 151.106 20.5888C153.322 13.8442 149.629 9.93946 142.242 12.0693C138.549 13.1343 134.855 15.2641 130.793 17.394C131.162 17.039 128.207 8.51956 127.838 7.8096C126.73 4.96977 125.253 1.41999 121.559 1.77497C119.713 1.77497 118.235 1.41999 117.127 2.48492C115.65 3.54985 114.911 5.32475 114.173 7.09964C112.326 10.6494 111.587 14.1992 110.849 17.749C107.155 15.9741 103.831 14.1992 100.507 12.7793C97.5527 11.7144 94.2287 11.0044 91.274 13.4893C88.3194 15.9741 89.058 19.1689 90.5353 22.0087C92.0127 25.2035 93.49 28.0434 95.706 31.9481C92.0126 33.0131 87.95 33.723 84.626 35.1429C83.1487 35.8529 81.3021 36.9178 80.1941 37.9828C78.7167 39.4027 79.086 41.1776 79.086 43.3074C79.086 43.6624 79.086 44.0174 79.086 44.0174C79.8247 45.7923 84.6261 47.5672 86.1034 48.2771C89.0581 48.9871 92.382 50.052 95.706 50.762ZM120.082 30.1732C125.991 30.1732 131.162 34.433 131.531 40.1126C131.901 45.7923 127.099 51.117 120.821 51.4719C114.542 51.4719 109.371 46.5022 109.371 40.8226C109.371 35.1429 114.173 30.5282 120.082 30.1732Z" fill="#E4CD59"/>
<path d="M331.34 39.7577C328.016 42.9525 324.692 46.1473 320.999 48.9871C314.72 54.3118 308.072 58.2166 299.577 59.2815C316.567 45.7923 317.305 33.7231 301.424 19.5239C309.18 20.5889 314.351 23.0737 320.629 28.7534C323.953 31.9482 327.277 35.143 330.601 38.3378C330.971 38.6928 330.971 39.0477 331.34 39.7577Z" fill="#E4CD59"/>
<path d="M245.655 39.0477C248.979 35.8529 252.303 32.6581 255.996 29.8183C262.275 24.4936 268.923 20.5889 277.418 19.5239C260.428 33.0131 259.69 45.0824 275.571 59.2815C267.815 58.2166 262.644 55.7317 256.366 50.0521C253.042 46.8573 249.718 43.6625 246.394 40.4676C246.024 40.1127 246.024 39.4027 245.655 39.0477Z" fill="#E4CD59"/>
<path d="M204.29 70.6409C186.562 70.6409 172.897 57.5067 172.527 40.4677C172.527 23.4288 186.562 9.5846 204.29 9.5846C221.648 9.5846 236.422 24.1387 236.052 40.8227C236.052 57.8616 222.018 70.6409 204.29 70.6409ZM204.659 66.0262C219.063 66.0262 230.882 54.6668 231.251 40.8227C231.251 26.6236 219.063 14.9093 204.29 14.9093C189.886 14.9093 178.067 26.2686 178.067 40.4677C177.698 55.0218 189.516 66.0262 204.659 66.0262Z" fill="#E4CD59"/>
<path d="M204.29 19.5239C216.478 19.5239 226.08 29.1083 226.08 40.8226C226.08 52.5369 216.108 61.7664 203.92 61.7664C192.102 61.4114 182.499 52.1819 182.499 40.8226C182.499 29.1084 192.102 19.5239 204.29 19.5239ZM187.67 40.1127C187.3 48.6322 195.426 56.4417 204.29 56.7967C213.154 56.7967 220.54 50.0521 220.91 41.5326C221.279 32.3032 214.262 25.2036 204.659 24.8486C195.426 24.1387 187.67 31.2382 187.67 40.1127Z" fill="#E4CD59"/>
<path d="M192.471 40.4678C192.471 34.0782 197.642 29.4634 204.659 29.4634C211.307 29.4634 216.108 34.4331 216.108 40.8227C216.108 47.2124 210.568 52.1821 204.29 51.8271C197.642 51.8271 192.471 46.5024 192.471 40.4678ZM204.29 34.0782C200.596 34.0782 197.642 36.918 197.642 40.4678C197.642 44.0176 200.596 46.8574 204.29 46.8574C207.983 46.8574 210.938 44.0176 210.938 40.4678C211.307 37.273 207.983 34.0782 204.29 34.0782Z" fill="#E4CD59"/>
</g>
<defs>
<clipPath id="clip0_54_3770">
<rect width="2517" height="82" fill="white" transform="translate(1836 82) rotate(180)"/>
</clipPath>
</defs>
</svg>
